<?xml version="1.0" encoding="UTF-8"?>
<!-- Generator: Adobe Illustrator 19.1.1, SVG Export Plug-In . SVG Version: 6.00 Build 0)  -->
<svg version="1.1" id="Layer_1" xmlns="http://www.w3.org/2000/svg" xmlns:xlink="http://www.w3.org/1999/xlink" x="0px" y="0px" width="511.5px" height="167.3px" viewBox="0 0 511.5 167.3" style="enable-background:new 0 0 511.5 167.3;" xml:space="preserve">
<style type="text/css">
	.st0{fill:#FFFFFF;}
</style>
<g>
	<path d="M511.5,144.7c0,12.5-10.1,22.6-22.6,22.6H22.6C10.1,167.3,0,157.2,0,144.7V22.6C0,10.1,10.1,0,22.6,0h466.3   c12.5,0,22.6,10.1,22.6,22.6V144.7z"/>
	<g>
		<path class="st0" d="M133.4,110.6c-2.7,6-4,8.7-7.5,14c-4.9,7.4-11.7,16.6-20.2,16.7c-7.6,0.1-9.5-4.9-19.7-4.9    c-10.2,0.1-12.4,4.9-19.9,4.9c-8.5-0.1-15-8.4-19.9-15.8c-13.6-20.7-15-45-6.6-57.9c6-9.2,15.4-14.6,24.2-14.6    c9,0,14.7,4.9,22.1,4.9c7.2,0,11.6-4.9,22-4.9c7.9,0,16.2,4.3,22.1,11.7C110.6,75.4,113.7,103.2,133.4,110.6z"/>
		<g>
			<path class="st0" d="M100,44.7c3.8-4.9,6.7-11.7,5.6-18.7c-6.2,0.4-13.4,4.4-17.6,9.5c-3.8,4.7-7,11.6-5.8,18.3     C88.9,54,95.9,49.9,100,44.7z"/>
		</g>
	</g>
	<g>
		<g>
			<path class="st0" d="M174.8,67.2l-19.5,57.4h8.9l5.8-17.6h18.9l6,17.6h9.2l-19.6-57.4H174.8z M179.4,76.7     c0.7,2.6,1.4,5.2,2.3,8.1L187,100H172l5.2-15.3C178,82.2,178.7,79.5,179.4,76.7z"/>
			<path class="st0" d="M229.3,82.1c-5.9,0-10.6,2.3-13.8,6.6l-0.3-5.7h-7.9l0,0.7c0.2,3.6,0.3,7.5,0.3,13.1v44.2h8.7v-20.6     c2.7,3.2,7,5.1,11.9,5.1c5.1,0,9.7-2,13.1-5.6c3.8-4,5.8-9.8,5.8-16.7c0-6.1-1.7-11.4-5-15.2C238.8,84.2,234.3,82.1,229.3,82.1z      M227.1,89.3c7.7,0,11.2,7.2,11.2,14.3c0,9.2-4.4,14.8-11.5,14.8c-4.9,0-9.1-3.3-10.2-8.1c-0.2-0.7-0.3-1.7-0.3-2.8v-7     c0-0.6,0.1-1.4,0.3-2.1c0-0.2,0.1-0.5,0.1-0.7C218,92.8,222.3,89.3,227.1,89.3z"/>
			<path class="st0" d="M274,82.1c-5.9,0-10.6,2.3-13.8,6.6l-0.3-5.7h-7.9l0,0.7c0.2,3.6,0.3,7.5,0.3,13.1v44.2h8.7v-20.6     c2.7,3.2,7,5.1,11.9,5.1c5.1,0,9.7-2,13.2-5.6c3.8-4,5.8-9.8,5.8-16.7c0-6.1-1.7-11.4-5-15.2C283.5,84.2,279,82.1,274,82.1z      M271.8,89.3c7.7,0,11.2,7.2,11.2,14.3c0,9.2-4.4,14.8-11.5,14.8c-4.9,0-9.1-3.3-10.2-8.1c-0.2-0.7-0.3-1.7-0.3-2.8v-7     c0-0.6,0.1-1.4,0.3-2.1c0-0.2,0.1-0.5,0.1-0.7C262.7,92.8,267,89.3,271.8,89.3z"/>
			<path class="st0" d="M330,91.6c-8.1-3.1-10.7-5.6-10.7-10.2c0-3.8,3-7.7,9.9-7.7c5.6,0,9.2,2,10.2,2.6l0.7,0.5l2.4-7.2l-0.5-0.3     c-1.5-0.9-5.6-2.8-12.6-2.8c-11.1,0-18.8,6.5-18.8,15.9c0,7.5,4.8,12.8,15.2,16.6c7.4,2.8,10.1,5.6,10.1,10.4     c0,5.5-4.2,8.9-11,8.9c-4.4,0-9-1.3-12.5-3.5l-0.8-0.5l-2.3,7.4l0.4,0.3c3.3,2.2,9.4,3.8,14.7,3.8c14.9,0,20.2-9.1,20.2-16.9     C344.6,100.6,340.4,95.7,330,91.6z"/>
			<path class="st0" d="M360.2,73.2l-8.5,2.7V83h-6.2V90h6.2v21.2c0,5.1,1,8.7,3,11c1.9,2.1,4.9,3.3,8.4,3.3c3.3,0,5.6-0.6,6.7-1     l0.5-0.2l-0.4-6.9l-0.8,0.3c-1.1,0.3-2.2,0.5-4,0.5c-3.4,0-4.8-2.1-4.8-7.1V90h10.5V83h-10.5V73.2z"/>
			<path class="st0" d="M392.2,82.1c-12.1,0-20.6,9.1-20.6,22c0,12.6,8.2,21.4,20,21.4h0.1c9.9,0,20.6-6.9,20.6-22.1     c0-6.2-1.9-11.5-5.5-15.3C403.1,84.2,398.1,82.1,392.2,82.1z M392,89c7.8,0,11.4,7.6,11.4,14.7c0,8.7-4.9,15-11.5,15h-0.1     c-6.6,0-11.4-6.2-11.4-14.8C380.4,96.5,383.9,89,392,89z"/>
			<path class="st0" d="M438.8,82.5l-0.5-0.1c-0.8-0.2-1.4-0.3-2.2-0.3c-4.5,0-8.6,2.7-10.9,7L425,83h-7.8l0,0.7     c0.2,3.4,0.3,7.3,0.3,12.5l-0.1,28.3h8.7v-22.1c0-1.2,0.1-2.3,0.2-3.4c1-5.3,4.6-8.7,9.1-8.7c0.9,0,1.6,0.1,2.3,0.1l0.9,0.1V82.5     z"/>
			<path class="st0" d="M458.3,82c-11.6,0-19.6,9.2-19.6,22.4c0,12.7,8,21,20.5,21c6.5,0,11.1-1.4,13.7-2.6l0.5-0.2l-1.7-6.5     l-0.7,0.3c-2.4,1-5.5,1.9-10.9,1.9c-3.8,0-12.5-1.2-13-12.6l28,0.1l0.1-0.6c0.2-0.9,0.3-2.1,0.3-3.6C475.6,92.6,471,82,458.3,82z      M457.8,88.6c2.6,0,4.8,0.8,6.4,2.4c2.5,2.5,2.9,6.3,3,8.1h-19.8C448.1,94.1,451.3,88.6,457.8,88.6z"/>
		</g>
		<g>
			<path class="st0" d="M155.3,28.1c2.4-0.3,5.2-0.6,8.3-0.6c5.6,0,9.6,1.1,12.2,3.3c2.7,2.2,4.3,5.4,4.3,9.8     c0,4.4-1.6,8.1-4.3,10.6c-2.9,2.5-7.5,3.9-13.4,3.9c-2.8,0-5.1-0.1-7.1-0.3V28.1z M159.3,52.1c1,0.2,2.4,0.2,3.9,0.2     c8.3,0,12.8-4.2,12.8-11.5c0-6.5-4-10.5-12.2-10.5c-2,0-3.5,0.2-4.6,0.4V52.1z"/>
			<path class="st0" d="M194.1,55.3c-5.8,0-10.4-3.9-10.4-10c0-6.5,4.8-10.4,10.7-10.4c6.2,0,10.4,4.1,10.4,10     C204.9,52.2,199.3,55.3,194.1,55.3L194.1,55.3z M194.3,52.6c3.8,0,6.6-3.2,6.6-7.6c0-3.3-1.8-7.5-6.5-7.5c-4.6,0-6.6,3.9-6.6,7.6     C187.7,49.4,190.4,52.6,194.3,52.6L194.3,52.6z"/>
			<path class="st0" d="M211.1,35.4l2.9,9.9c0.6,2.2,1.2,4.2,1.6,6.2h0.1c0.5-2,1.2-4.1,1.9-6.2l3.5-9.9h3.3l3.4,9.7     c0.8,2.3,1.4,4.4,1.9,6.4h0.1c0.4-2,0.9-4,1.7-6.3l3.1-9.8h3.9l-7,19.5H228l-3.3-9.3c-0.8-2.2-1.4-4.1-1.9-6.4h-0.1     c-0.5,2.3-1.2,4.4-2,6.5l-3.5,9.3h-3.6l-6.5-19.5H211.1z"/>
			<path class="st0" d="M242.5,40.6c0-2.1,0-3.7-0.2-5.3h3.5l0.2,3.2h0.1c1.1-1.8,3.6-3.6,7.2-3.6c3,0,7.7,1.6,7.7,8.3v11.6H257     V43.6c0-3.1-1.3-5.8-5-5.8c-2.6,0-4.6,1.7-5.3,3.6c-0.2,0.4-0.3,1.1-0.3,1.7v11.8h-3.9V40.6z"/>
			<path class="st0" d="M267.4,26.3h3.9v28.6h-3.9V26.3z"/>
			<path class="st0" d="M286.6,55.3c-5.8,0-10.4-3.9-10.4-10c0-6.5,4.8-10.4,10.7-10.4c6.2,0,10.4,4.1,10.4,10     C297.4,52.2,291.8,55.3,286.6,55.3L286.6,55.3z M286.8,52.6c3.8,0,6.6-3.2,6.6-7.6c0-3.3-1.8-7.5-6.5-7.5c-4.6,0-6.6,3.9-6.6,7.6     C280.2,49.4,282.9,52.6,286.8,52.6L286.8,52.6z"/>
			<path class="st0" d="M317.7,50.2c0,1.7,0.1,3.3,0.3,4.7h-3.5l-0.4-2.5h-0.1c-1.2,1.5-3.5,2.9-6.6,2.9c-4.4,0-6.6-2.8-6.6-5.6     c0-4.7,4.7-7.3,13-7.2V42c0-1.6-0.5-4.6-4.9-4.5c-2.1,0-4.2,0.5-5.7,1.4l-0.9-2.4c1.8-1,4.4-1.7,7.2-1.7c6.7,0,8.3,4.1,8.3,8     V50.2z M313.8,44.9c-4.3-0.1-9.2,0.6-9.2,4.4c0,2.3,1.7,3.4,3.7,3.4c2.9,0,4.7-1.6,5.3-3.3c0.1-0.4,0.2-0.8,0.2-1.1V44.9z"/>
			<path class="st0" d="M342.7,26.3v23.6c0,1.7,0,3.7,0.2,5h-3.5l-0.2-3.4h-0.1c-1.2,2.2-3.8,3.8-7.3,3.8c-5.2,0-9.3-4-9.3-9.9     c0-6.5,4.5-10.5,9.7-10.5c3.4,0,5.6,1.4,6.5,2.9h0.1V26.3H342.7z M338.7,43.3c0-0.5,0-1-0.2-1.5c-0.6-2.2-2.7-4.1-5.7-4.1     c-4.1,0-6.5,3.2-6.5,7.5c0,4,2.2,7.2,6.4,7.2c2.6,0,5.1-1.6,5.8-4.2c0.1-0.5,0.2-1,0.2-1.5V43.3z"/>
			<path class="st0" d="M367.5,55.3c-5.8,0-10.4-3.9-10.4-10c0-6.5,4.8-10.4,10.7-10.4c6.2,0,10.4,4.1,10.4,10     C378.3,52.2,372.7,55.3,367.5,55.3L367.5,55.3z M367.7,52.6c3.8,0,6.6-3.2,6.6-7.6c0-3.3-1.8-7.5-6.5-7.5c-4.6,0-6.6,3.9-6.6,7.6     C361.1,49.4,363.8,52.6,367.7,52.6L367.7,52.6z"/>
			<path class="st0" d="M383.3,40.6c0-2.1,0-3.7-0.2-5.3h3.5l0.2,3.2h0.1c1.1-1.8,3.6-3.6,7.2-3.6c3,0,7.7,1.6,7.7,8.3v11.6h-3.9     V43.6c0-3.1-1.3-5.8-5-5.8c-2.5,0-4.6,1.7-5.3,3.6c-0.2,0.4-0.3,1.1-0.3,1.7v11.8h-3.9V40.6z"/>
			<path class="st0" d="M422.3,30.7v4.7h5.6v2.7h-5.6v10.5c0,2.4,0.8,3.8,3,3.8c1.1,0,1.7-0.1,2.3-0.2l0.2,2.7     c-0.8,0.2-2,0.5-3.5,0.5c-1.8,0-3.3-0.6-4.3-1.5c-1.1-1.1-1.5-2.8-1.5-5.1V38.1h-3.4v-2.7h3.4v-3.6L422.3,30.7z"/>
			<path class="st0" d="M432.4,26.3h3.9v12.2h0.1c0.6-1,1.6-1.9,2.8-2.5c1.2-0.6,2.5-1,4-1c2.9,0,7.6,1.6,7.6,8.3v11.6h-3.9V43.7     c0-3.2-1.3-5.8-5-5.8c-2.6,0-4.5,1.6-5.3,3.5c-0.2,0.5-0.3,1-0.3,1.7v11.8h-3.9V26.3z"/>
			<path class="st0" d="M459.5,45.7c0.1,4.8,3.4,6.8,7.4,6.8c2.8,0,4.6-0.4,6-1l0.7,2.5c-1.4,0.6-3.8,1.2-7.3,1.2     c-6.6,0-10.7-4-10.7-9.8c0-5.9,3.9-10.6,10.2-10.6c7.1,0,8.9,5.6,8.9,9.2c0,0.7,0,1.3-0.1,1.7L459.5,45.7z M471,43.2     c0-2.2-1-5.8-5.4-5.8c-4,0-5.7,3.3-6,5.8H471z"/>
		</g>
	</g>
</g>
</svg>