<?xml version="1.0" encoding="UTF-8"?>
<!-- Generator: Adobe Illustrator 19.1.1, SVG Export Plug-In . SVG Version: 6.00 Build 0)  -->
<svg version="1.1" id="Layer_1" xmlns="http://www.w3.org/2000/svg" xmlns:xlink="http://www.w3.org/1999/xlink" x="0px" y="0px" width="511.5px" height="167.3px" viewBox="-223 197.7 511.5 167.3" style="enable-background:new -223 197.7 511.5 167.3;" xml:space="preserve">
<style type="text/css">
	.st0{clip-path:url(#SVGID_2_);fill:url(#SVGID_3_);}
	.st1{clip-path:url(#SVGID_5_);fill:url(#SVGID_6_);}
	.st2{clip-path:url(#SVGID_8_);fill:url(#SVGID_9_);}
	.st3{clip-path:url(#SVGID_11_);fill:url(#SVGID_12_);}
	.st4{fill:#F9F9F9;}
	.st5{fill:#FCFCFD;}
</style>
<g>
	<path d="M288.5,342.4c0,12.5-10.1,22.6-22.6,22.6h-466.3c-12.5,0-22.6-10.1-22.6-22.6V220.3c0-12.5,10.1-22.6,22.6-22.6h466.3   c12.5,0,22.6,10.1,22.6,22.6V342.4z"/>
	<g id="PLAY_1_">
		<g>
			<defs>
				<path id="SVGID_1_" d="M-112.2,271.3l-23-13.3c0,0-42-24.3-44.5-25.7c-2.5-1.4-4.9-0.6-4.9,2.4c0,5,0,51.8,0,51.8s0,50.6,0,52.9      c0,2.2,1.8,3.2,3.9,2c2.1-1.2,45.5-26.3,45.5-26.3l23.1-13.3c0,0,19.6-11.3,22.2-12.8s2.4-3.6,0.2-4.7      C-92,283.1-112.2,271.3-112.2,271.3z"/>
			</defs>
			<clipPath id="SVGID_2_">
				<use xlink:href="#SVGID_1_" style="overflow:visible;"/>
			</clipPath>
			
				<linearGradient id="SVGID_3_" gradientUnits="userSpaceOnUse" x1="-156.05" y1="335.5" x2="-156.05" y2="222.2" gradientTransform="matrix(1 0 0 -1 0 565.4)">
				<stop offset="0" style="stop-color:#2079B0"/>
				<stop offset="0.2863" style="stop-color:#4A93B8"/>
				<stop offset="0.767" style="stop-color:#83BEBF"/>
				<stop offset="1" style="stop-color:#97CFBF"/>
			</linearGradient>
			<polygon class="st0" points="-184.6,229.9 -184.6,286.6 -184.6,343.2 -127.5,286.6    "/>
		</g>
		<g>
			<defs>
				<path id="SVGID_4_" d="M-112.2,271.3l-23-13.3c0,0-42-24.3-44.5-25.7c-2.5-1.4-4.9-0.6-4.9,2.4c0,5,0,51.8,0,51.8s0,50.6,0,52.9      c0,2.2,1.8,3.2,3.9,2c2.1-1.2,45.5-26.3,45.5-26.3l23.1-13.3c0,0,19.6-11.3,22.2-12.8s2.4-3.6,0.2-4.7      C-92,283.1-112.2,271.3-112.2,271.3z"/>
			</defs>
			<clipPath id="SVGID_5_">
				<use xlink:href="#SVGID_4_" style="overflow:visible;"/>
			</clipPath>
			
				<linearGradient id="SVGID_6_" gradientUnits="userSpaceOnUse" x1="-184.6" y1="307.35" x2="-112.1205" y2="307.35" gradientTransform="matrix(1 0 0 -1 0 565.4)">
				<stop offset="0" style="stop-color:#5ABCAB"/>
				<stop offset="1" style="stop-color:#E6E99A"/>
			</linearGradient>
			<polygon class="st1" points="-112.2,271.3 -135.2,258 -184.6,229.5 -184.6,229.9 -127.5,286.6    "/>
		</g>
		<g>
			<defs>
				<path id="SVGID_7_" d="M-112.2,271.3l-23-13.3c0,0-42-24.3-44.5-25.7c-2.5-1.4-4.9-0.6-4.9,2.4c0,5,0,51.8,0,51.8s0,50.6,0,52.9      c0,2.2,1.8,3.2,3.9,2c2.1-1.2,45.5-26.3,45.5-26.3l23.1-13.3c0,0,19.6-11.3,22.2-12.8s2.4-3.6,0.2-4.7      C-92,283.1-112.2,271.3-112.2,271.3z"/>
			</defs>
			<clipPath id="SVGID_8_">
				<use xlink:href="#SVGID_7_" style="overflow:visible;"/>
			</clipPath>
			
				<linearGradient id="SVGID_9_" gradientUnits="userSpaceOnUse" x1="-148.4" y1="278.8" x2="-148.4" y2="221.7375" gradientTransform="matrix(1 0 0 -1 0 565.4)">
				<stop offset="0" style="stop-color:#E53432"/>
				<stop offset="0.1668" style="stop-color:#D73948"/>
				<stop offset="0.5748" style="stop-color:#B33F72"/>
				<stop offset="0.8619" style="stop-color:#9A4189"/>
				<stop offset="1" style="stop-color:#904192"/>
			</linearGradient>
			<polygon class="st2" points="-184.6,343.2 -184.6,343.6 -135.2,315.1 -112.2,301.8 -127.5,286.6    "/>
		</g>
		<g>
			<defs>
				<path id="SVGID_10_" d="M-112.2,271.3l-23-13.3c0,0-42-24.3-44.5-25.7c-2.5-1.4-4.9-0.6-4.9,2.4c0,5,0,51.8,0,51.8      s0,50.6,0,52.9c0,2.2,1.8,3.2,3.9,2c2.1-1.2,45.5-26.3,45.5-26.3l23.1-13.3c0,0,19.6-11.3,22.2-12.8s2.4-3.6,0.2-4.7      C-92,283.1-112.2,271.3-112.2,271.3z"/>
			</defs>
			<clipPath id="SVGID_11_">
				<use xlink:href="#SVGID_10_" style="overflow:visible;"/>
			</clipPath>
			
				<linearGradient id="SVGID_12_" gradientUnits="userSpaceOnUse" x1="-106.65" y1="294.0535" x2="-106.65" y2="263.6219" gradientTransform="matrix(1 0 0 -1 0 565.4)">
				<stop offset="0" style="stop-color:#F18779"/>
				<stop offset="0.1194" style="stop-color:#F2917A"/>
				<stop offset="0.7128" style="stop-color:#FABC77"/>
				<stop offset="1" style="stop-color:#FDCB73"/>
			</linearGradient>
			<polygon class="st3" points="-112.2,271.3 -127.5,286.6 -112.2,301.8 -85.8,286.6    "/>
		</g>
	</g>
	<g>
		<path class="st4" d="M175.1,314.7c-2.1,0-4.1-0.4-5.9-1.2c-1.8-0.8-3.3-2-4.5-3.7h-0.4c0.2,1.9,0.4,3.7,0.4,5.5v13.6h-5v-47.7h4.1    l0.7,4.5h0.2c1.3-1.8,2.8-3.1,4.5-3.9c1.7-0.8,3.7-1.2,5.9-1.2c4.4,0,7.7,1.5,10.1,4.5s3.6,7.2,3.6,12.6c0,5.4-1.2,9.6-3.6,12.6    C182.7,313.2,179.3,314.7,175.1,314.7z M174.3,284.8c-3.4,0-5.8,0.9-7.3,2.8c-1.5,1.9-2.3,4.8-2.3,8.9v1.1c0,4.6,0.8,7.9,2.3,9.9    s4,3,7.4,3c2.8,0,5.1-1.2,6.7-3.5c1.6-2.3,2.4-5.5,2.4-9.5c0-4.1-0.8-7.3-2.4-9.5C179.5,285.9,177.3,284.8,174.3,284.8z"/>
		<path class="st4" d="M200.3,314.1h-5v-46.8h5V314.1z"/>
		<path class="st4" d="M229,314.1l-1-4.7h-0.2c-1.6,2.1-3.3,3.5-4.9,4.2c-1.6,0.7-3.7,1.1-6.1,1.1c-3.3,0-5.8-0.8-7.7-2.5    c-1.9-1.7-2.8-4.1-2.8-7.2c0-6.7,5.3-10.1,16-10.5l5.6-0.2v-2c0-2.6-0.6-4.5-1.7-5.7c-1.1-1.2-2.9-1.8-5.3-1.8    c-2.7,0-5.9,0.8-9.3,2.5l-1.5-3.8c1.6-0.9,3.4-1.6,5.3-2.1s3.9-0.8,5.8-0.8c3.9,0,6.8,0.9,8.7,2.6c1.9,1.7,2.8,4.5,2.8,8.4v22.5    H229z M217.7,310.6c3.1,0,5.5-0.9,7.3-2.6c1.8-1.7,2.7-4.1,2.7-7.2v-3l-5,0.2c-4,0.1-6.8,0.8-8.6,1.9c-1.8,1.1-2.6,2.8-2.6,5.1    c0,1.8,0.5,3.2,1.6,4.1C214.2,310.1,215.7,310.6,217.7,310.6z"/>
		<path class="st4" d="M235.6,281.2h5.3l7.2,18.8c1.6,4.3,2.6,7.4,2.9,9.3h0.2c0.3-1,0.8-2.8,1.6-5.2c0.8-2.5,3.6-10.1,8.2-22.8h5.4    l-14.1,37.4c-1.4,3.7-3,6.3-4.9,7.9c-1.9,1.6-4.2,2.3-6.9,2.3c-1.5,0-3-0.2-4.5-0.5v-4c1.1,0.2,2.3,0.4,3.7,0.4    c3.4,0,5.9-1.9,7.3-5.8l1.8-4.7L235.6,281.2z"/>
	</g>
	<g>
		<path class="st4" d="M82.6,284.2c1.6,1.3,4.9,4.1,4.9,9.3c0,5.1-2.9,7.5-5.8,9.8c-0.9,0.9-1.9,1.9-1.9,3.4s1,2.3,1.8,3l2.5,1.9    c3,2.6,5.8,4.9,5.8,9.7c0,6.5-6.3,13-18.1,13c-10,0-14.8-4.8-14.8-9.9c0-2.5,1.2-6,5.3-8.4c4.3-2.6,10.1-3,13.2-3.2    c-1-1.2-2.1-2.5-2.1-4.7c0-1.2,0.3-1.9,0.7-2.7c-0.8,0.1-1.5,0.1-2.2,0.1c-7.3,0-11.4-5.4-11.4-10.8c0-3.2,1.4-6.7,4.4-9.2    c3.9-3.2,8.6-3.8,12.3-3.8h14.2l-4.4,2.5C87,284.2,82.6,284.2,82.6,284.2z M77.7,314.8c-0.6-0.1-0.9-0.1-1.6-0.1    c-0.6,0-4.3,0.1-7.2,1.1c-1.5,0.5-5.9,2.2-5.9,7.1s4.8,8.4,12.1,8.4c6.6,0,10.1-3.2,10.1-7.4C85.2,320.4,83,318.5,77.7,314.8z     M79.7,301.7c1.6-1.6,1.7-3.8,1.7-5c0-5-3-12.7-8.7-12.7c-1.8,0-3.7,0.9-4.8,2.3c-1.2,1.4-1.5,3.3-1.5,5.1    c0,4.6,2.7,12.3,8.6,12.3C76.8,303.7,78.6,302.8,79.7,301.7z"/>
		<path class="st4" d="M39.2,313.7c-10.9,0-16.8-8.5-16.8-16.2c0-9,7.4-16.7,17.8-16.7c10.1,0,16.4,7.9,16.4,16.2    C56.7,305.1,50.4,313.7,39.2,313.7z M47.8,308.1c1.7-2.2,2.1-5,2.1-7.6c0-6.1-2.9-17.6-11.4-17.6c-2.3,0-4.5,0.9-6.2,2.3    c-2.7,2.4-3.2,5.4-3.2,8.4c0,6.8,3.4,18,11.7,18C43.5,311.7,46.2,310.3,47.8,308.1z"/>
		<path class="st4" d="M1.9,313.7c-10.9,0-16.8-8.5-16.8-16.2c0-9,7.4-16.7,17.8-16.7c10.1,0,16.4,7.9,16.4,16.2    C19.4,305.1,13.1,313.7,1.9,313.7z M10.5,308.1c1.7-2.2,2.1-5,2.1-7.6c0-6.1-2.9-17.6-11.4-17.6c-2.3,0-4.5,0.9-6.2,2.3    c-2.7,2.4-3.2,5.4-3.2,8.4c0,6.8,3.4,18,11.7,18C6.2,311.7,8.9,310.3,10.5,308.1z"/>
		<path class="st4" d="M-20.1,312.6l-9.9,2.3c-4,0.6-7.6,1.2-11.4,1.2c-19.1,0-26.4-14-26.4-25c0-13.4,10.3-25.9,27.9-25.9    c3.7,0,7.3,0.6,10.6,1.5c5.2,1.5,7.6,3.3,9.1,4.3l-5.7,5.5l-2.4,0.6l1.7-2.8c-2.4-2.3-6.6-6.5-14.8-6.5    c-10.9,0-19.2,8.3-19.2,20.4c0,13,9.4,25.2,24.5,25.2c4.4,0,6.7-0.9,8.8-1.7v-11.2l-10.4,0.6l5.5-3h14.7l-1.8,1.7    c-0.5,0.4-0.6,0.6-0.7,1.1c-0.1,0.6-0.1,2.6-0.1,3.3L-20.1,312.6L-20.1,312.6z"/>
		<path class="st4" d="M104.5,310.6c-2.3-0.2-2.8-0.6-2.8-3.3v-0.8v-38.3c0-0.1,0-0.3,0-0.4c0.3-2.4,1-2.8,3.1-4.1H95l-5.2,2.5h5.3    l0,0l0,0v40.4v2.3c0,1.4-0.3,1.6-1.9,3.7h12.2l2.6-1.5C106.8,310.9,105.7,310.8,104.5,310.6z"/>
		<path class="st4" d="M132.6,311.3c-0.8,0.4-1.5,0.9-2.3,1.2c-2.3,1-4.6,1.3-6.7,1.3c-2.2,0-5.6-0.1-9.1-2.7c-4.9-3.4-7-9.3-7-14.5    c0-10.6,8.7-15.9,15.7-15.9c2.5,0,5,0.6,7.1,1.9c3.4,2.3,4.3,5.2,4.8,6.8L119,296l-5.3,0.4c1.7,8.7,7.6,13.8,14.2,13.8    c3.5,0,6-1.2,8.4-2.4L132.6,311.3z M126.2,290.8c1.3-0.5,2-0.9,2-1.9c0-2.7-3.1-5.9-6.8-5.9c-2.8,0-7.9,2.1-7.9,9.5    c0,1.2,0.1,2.4,0.2,3.6L126.2,290.8z"/>
		<g>
			<path class="st4" d="M139.3,281.3v4.5h-0.6v-4.5h-1.5v-0.5h3.5v0.5H139.3z"/>
			<path class="st4" d="M145.4,285.8v-4.6l0,0l-1.4,4.6h-0.4l-1.4-4.6l0,0v4.6h-0.5v-5h0.9l1.3,4l0,0l1.3-4h0.9v5H145.4z"/>
		</g>
	</g>
	<g>
		<path class="st5" d="M-45.1,251.4h-5.6c0-0.8-0.5-3-1.7-6.6h-8.3c-1.2,3.6-1.7,5.8-1.7,6.6h-5.3c0-0.5,1.3-4.3,4.1-11.4    c2.8-7.1,4.1-11.1,4.1-11.8h6.8c0,0.7,1.3,4.5,3.8,11.6C-46.4,246.9-45.1,250.7-45.1,251.4z M-53.4,241.3c-2-6.1-3-9.4-3-9.9h-0.3    c0,0.5-1,3.8-3.1,9.9H-53.4z"/>
		<path class="st5" d="M-22.2,251.4h-4.5c0-0.5-1.7-3-5-7.8c-3.5-5-5.3-8.3-5.8-10.1h-0.3c0.3,2.6,0.5,5,0.5,7.1c0,3,0,6.5,0.3,10.8    h-4.3c0.2-3.6,0.3-7.8,0.3-12.1c0-4.3-0.2-7.9-0.3-11.1h5.3c0,0.7,1.5,3.1,4.5,7.5c3.1,4.6,5,7.8,5.3,9.4h0.3    c-0.3-2.6-0.5-5-0.5-7.1c0-3.1-0.2-6.5-0.3-9.9h4.5c-0.2,3-0.3,6.6-0.3,11.1C-22.4,243.8-22.4,247.7-22.2,251.4z"/>
		<path class="st5" d="M3.6,239c0,3.3-1.2,6.3-3.3,8.8c-2.2,2.5-5.1,3.8-9.1,3.8c-1.8,0-4.1,0-7.3-0.2c0.2-3.6,0.2-7.6,0.2-12.1    c0-4.3,0-7.9-0.2-11.1h3.1c0.5,0,1.3,0,2.3,0c1,0,1.7,0,2,0c4.3,0,7.5,1,9.3,3.1C2.6,233.5,3.6,236,3.6,239z M-1.4,239.8    c0-2.3-0.7-4.1-2-5.8c-1.3-1.5-3.3-2.3-6.1-2.3c-0.5,0-1.2,0-2.2,0.2c0.2,2.3,0.2,4.8,0.2,7.5c0,2.8,0,5.6,0.2,8.4    c0.8,0.2,1.5,0.2,2.3,0.2c2.5,0,4.5-0.8,5.6-2.3C-1.9,243.9-1.4,242.1-1.4,239.8z"/>
		<path class="st5" d="M27.3,251.4H22c-1.3-4.1-2.5-6.8-3.1-7.8s-2-1.5-3.5-1.5c-0.7,0-1.3,0-2,0c0,3,0,6.1,0.2,9.3h-5    c0.2-3.6,0.2-7.6,0.2-12.1c0-4.3,0-7.9-0.2-11.1h3.1c0.3,0,1.2,0,2.2,0c1.2,0,2.2,0,3.1,0c5.5,0,8.1,1.8,8.1,5.6    c0,3-1.5,5-4.6,6.1v0.3c1.2,0.3,2.3,1.3,3.1,2.8C24.6,244.4,25.8,247.2,27.3,251.4z M20.7,235c0-2.3-1.5-3.5-4.6-3.5    c-1.2,0-2.2,0-3,0.3c0.2,1.8,0.2,4.3,0.2,7.1c0.7,0,1.2,0,1.7,0C18.8,239,20.7,237.6,20.7,235z"/>
		<path class="st5" d="M52.8,239.5c0,3.6-1.2,6.6-3.3,9.1c-2.2,2.3-5,3.6-8.3,3.6c-3.1,0-5.8-1.2-7.8-3.3c-2.2-2.2-3.1-5-3.1-8.4    c0-3.6,1.2-6.6,3.3-9.1c2.2-2.3,5-3.6,8.3-3.6c3.1,0,5.8,1.2,7.8,3.3C51.8,233.2,52.8,236,52.8,239.5z M48,240    c0-2.5-0.7-4.5-1.8-6c-1.3-1.5-2.8-2.3-4.6-2.3c-1.7,0-3.1,0.8-4.5,2.3c-1.2,1.5-1.8,3.5-1.8,6c0,2.5,0.7,4.5,2,6    c1.3,1.5,2.8,2.3,4.6,2.3c1.7,0,3.1-0.8,4.5-2.3C47.3,244.3,48,242.3,48,240z"/>
		<path class="st5" d="M62.9,251.4h-5c0.2-3.6,0.2-7.8,0.2-12.1c0-4.3,0-7.9-0.2-11.1h5c-0.2,3-0.2,6.6-0.2,11.1    C62.7,243.8,62.7,247.7,62.9,251.4z"/>
		<path class="st5" d="M88.7,239c0,3.3-1.2,6.3-3.3,8.8c-2.2,2.5-5.1,3.8-9.1,3.8c-1.8,0-4.1,0-7.3-0.2c0.2-3.6,0.2-7.6,0.2-12.1    c0-4.3,0-7.9-0.2-11.1h3.1c0.5,0,1.3,0,2.3,0c1,0,1.7,0,2,0c4.3,0,7.5,1,9.3,3.1C87.7,233.5,88.7,236,88.7,239z M83.7,239.8    c0-2.3-0.7-4.1-2-5.8c-1.3-1.5-3.3-2.3-6.1-2.3c-0.5,0-1.2,0-2.2,0.2c0.2,2.3,0.2,4.8,0.2,7.5c0,2.8,0,5.6,0.2,8.4    c0.8,0.2,1.5,0.2,2.3,0.2c2.5,0,4.5-0.8,5.6-2.3C83.3,243.9,83.7,242.1,83.7,239.8z"/>
		<path class="st5" d="M122.8,251.4h-5.6c0-0.8-0.5-3-1.7-6.6h-8.3c-1.2,3.6-1.7,5.8-1.7,6.6h-5.3c0-0.5,1.3-4.3,4.1-11.4    s4.1-11.1,4.1-11.8h6.8c0,0.7,1.3,4.5,3.8,11.6C121.7,246.9,122.8,250.7,122.8,251.4z M114.7,241.3c-2-6.1-3-9.4-3-9.9h-0.3    c0,0.5-1,3.8-3.1,9.9H114.7z"/>
		<path class="st5" d="M143.7,234.3c0,2.8-1,5-3.1,6.3c-2.2,1.3-4.6,2-7.8,2c-0.5,0-1,0-1.2,0c0,2.2,0,5.1,0.2,8.8h-5    c0.2-3.5,0.2-7.5,0.2-12.1c0-4.3,0-7.9-0.2-11.1h3.1c0.5,0,1.3,0,2.5,0c1.3,0,2.3,0,3.3,0c2.3,0,4.1,0.5,5.6,1.5    C142.9,230.7,143.7,232.2,143.7,234.3z M139.1,235.3c0-2.5-1.7-3.8-5.1-3.8c-0.8,0-1.7,0.2-2.6,0.3c0.2,2.3,0.2,4.8,0.2,7.6    c0.3,0,0.7,0,1,0C136.9,239.5,139.1,238,139.1,235.3z"/>
		<path class="st5" d="M164.9,234.3c0,2.8-1,5-3.1,6.3c-2.2,1.3-4.6,2-7.8,2c-0.5,0-1,0-1.2,0c0,2.2,0,5.1,0.2,8.8h-5    c0.2-3.5,0.2-7.5,0.2-12.1c0-4.3,0-7.9-0.2-11.1h3.1c0.5,0,1.3,0,2.5,0c1.3,0,2.3,0,3.3,0c2.3,0,4.1,0.5,5.6,1.5    C164.2,230.7,164.9,232.2,164.9,234.3z M160.4,235.3c0-2.5-1.7-3.8-5.1-3.8c-0.8,0-1.7,0.2-2.6,0.3c0.2,2.3,0.2,4.8,0.2,7.6    c0.3,0,0.7,0,1,0C158.3,239.5,160.4,238,160.4,235.3z"/>
		<path class="st5" d="M199.8,239.5c0,3.6-1.2,6.6-3.3,9.1c-2.2,2.5-5,3.6-8.3,3.6c-3.1,0-5.8-1.2-7.8-3.3c-2.2-2.2-3.1-5-3.1-8.4    c0-3.6,1.2-6.6,3.3-9.1c2.2-2.3,5-3.6,8.3-3.6c3.1,0,5.8,1.2,7.8,3.3C198.8,233.2,199.8,236,199.8,239.5z M194.9,240    c0-2.5-0.7-4.5-1.8-6c-1.3-1.5-2.8-2.3-4.6-2.3c-1.7,0-3.1,0.8-4.5,2.3c-1.2,1.5-1.8,3.5-1.8,6c0,2.5,0.7,4.5,2,6    c1.3,1.5,2.8,2.3,4.6,2.3c1.7,0,3.1-0.8,4.5-2.3C194.4,244.3,194.9,242.3,194.9,240z"/>
		<path class="st5" d="M224,251.4h-4.5c0-0.5-1.7-3-5-7.8c-3.5-5-5.3-8.3-5.8-10.1h-0.3c0.3,2.6,0.5,5,0.5,7.1c0,3,0,6.5,0.3,10.8    H205c0.2-3.6,0.3-7.8,0.3-12.1c0-4.3-0.2-7.9-0.3-11.1h5.3c0,0.7,1.5,3.1,4.5,7.5c3.1,4.6,5,7.8,5.3,9.4h0.3    c-0.3-2.6-0.5-5-0.5-7.1c0-3.1,0-6.5-0.3-9.9h4.5c-0.2,3-0.3,6.6-0.3,11.1C223.7,243.8,223.8,247.7,224,251.4z"/>
	</g>
</g>
</svg>